<?xml version="1.0" encoding="UTF-8" standalone="no"?>
<svg
   xmlns:dc="http://purl.org/dc/elements/1.1/"
   xmlns:cc="http://creativecommons.org/ns#"
   xmlns:rdf="http://www.w3.org/1999/02/22-rdf-syntax-ns#"
   xmlns:svg="http://www.w3.org/2000/svg"
   xmlns="http://www.w3.org/2000/svg"
   xmlns:xlink="http://www.w3.org/1999/xlink"
   xmlns:sodipodi="http://sodipodi.sourceforge.net/DTD/sodipodi-0.dtd"
   xmlns:inkscape="http://www.inkscape.org/namespaces/inkscape"
   inkscape:version="1.0beta1 (fe3e306, 2019-09-17)"
   sodipodi:docname="logos.svg"
   id="svg8"
   version="1.1"
   viewBox="0 0 210 297"
   height="297mm"
   width="210mm">
  <defs
     id="defs2">
    <linearGradient
       id="linearGradient909"
       inkscape:collect="always">
      <stop
         id="stop905"
         offset="0"
         style="stop-color:#a36500;stop-opacity:1;" />
      <stop
         id="stop907"
         offset="1"
         style="stop-color:#835100;stop-opacity:1" />
    </linearGradient>
    <linearGradient
       id="linearGradient889"
       inkscape:collect="always">
      <stop
         id="stop885"
         offset="0"
         style="stop-color:#a36500;stop-opacity:1;" />
      <stop
         id="stop887"
         offset="1"
         style="stop-color:#835000;stop-opacity:1" />
    </linearGradient>
    <radialGradient
       gradientUnits="userSpaceOnUse"
       gradientTransform="matrix(0.78430612,0.47517822,-0.23303027,0.38462845,30.623717,0.55305054)"
       r="6.2520208"
       fy="50.261353"
       fx="69.266083"
       cy="50.261353"
       cx="69.266083"
       id="radialGradient895"
       xlink:href="#linearGradient889"
       inkscape:collect="always" />
    <radialGradient
       gradientUnits="userSpaceOnUse"
       gradientTransform="matrix(0.8906519,0.41175006,-0.28777917,0.62249186,23.636935,-7.3909208)"
       r="6.2520175"
       fy="59.684475"
       fx="69.267769"
       cy="59.684475"
       cx="69.267769"
       id="radialGradient913"
       xlink:href="#linearGradient909"
       inkscape:collect="always" />
    <filter
       height="1.072025"
       y="-0.036012493"
       width="1.0446185"
       x="-0.022309253"
       id="filter917"
       style="color-interpolation-filters:sRGB"
       inkscape:collect="always">
      <feGaussianBlur
         id="feGaussianBlur919"
         stdDeviation="0.18716314"
         inkscape:collect="always" />
    </filter>
    <filter
       height="1.1050041"
       y="-0.052502071"
       width="1.1031752"
       x="-0.051587595"
       id="filter957"
       style="color-interpolation-filters:sRGB"
       inkscape:collect="always">
      <feGaussianBlur
         id="feGaussianBlur959"
         stdDeviation="0.26975192"
         inkscape:collect="always" />
    </filter>
  </defs>
  <sodipodi:namedview
     inkscape:window-maximized="1"
     inkscape:window-y="-11"
     inkscape:window-x="-11"
     inkscape:window-height="986"
     inkscape:window-width="1920"
     inkscape:guide-bbox="true"
     showguides="true"
     showgrid="false"
     inkscape:document-rotation="0"
     inkscape:current-layer="layer1"
     inkscape:document-units="mm"
     inkscape:cy="223.55722"
     inkscape:cx="195.53947"
     inkscape:zoom="3.959798"
     inkscape:pageshadow="2"
     inkscape:pageopacity="0.0"
     borderopacity="1.0"
     bordercolor="#666666"
     pagecolor="#ffffff"
     id="base">
    <sodipodi:guide
       id="guide837"
       orientation="0.70710678,-0.70710678"
       position="50.24667,259.71591" />
  </sodipodi:namedview>
  <metadata
     id="metadata5">
    <rdf:RDF>
      <cc:Work
         rdf:about="">
        <dc:format>image/svg+xml</dc:format>
        <dc:type
           rdf:resource="http://purl.org/dc/dcmitype/StillImage" />
      </cc:Work>
    </rdf:RDF>
  </metadata>
  <g
     id="layer1"
     inkscape:groupmode="layer"
     inkscape:label="Capa 1">
    <ellipse
       inkscape:export-ydpi="217.03084"
       inkscape:export-xdpi="217.03084"
       transform="matrix(0.99454411,0.10873966,-0.10983747,0.98460374,5.7656663,-5.1443415)"
       style="opacity:0.446429;fill:#1a1b11;fill-opacity:0.318452;fill-rule:evenodd;stroke-width:0.244756;filter:url(#filter917)"
       id="ellipse915"
       cx="69.24427"
       cy="57.287014"
       rx="10.067382"
       ry="6.2366071" />
    <ellipse
       inkscape:export-ydpi="217.03084"
       inkscape:export-xdpi="217.03084"
       transform="rotate(25.693775)"
       ry="6.2366071"
       rx="10.067382"
       cy="21.330309"
       cx="86.637833"
       id="path839"
       style="fill:#a4a874;fill-opacity:1;fill-rule:evenodd;stroke-width:0.244756" />
    <ellipse
       inkscape:export-ydpi="217.03084"
       inkscape:export-xdpi="217.03084"
       transform="rotate(25.693775)"
       style="fill:#c1c096;fill-opacity:1;fill-rule:evenodd;stroke-width:0.204442"
       id="ellipse843"
       cx="86.637833"
       cy="20.85784"
       rx="8.4092073"
       ry="5.2093906" />
    <path
       inkscape:export-ydpi="217.03084"
       inkscape:export-xdpi="217.03084"
       transform="matrix(0.90120578,0.40339407,-0.42327594,0.81846025,31.224201,-17.026889)"
       inkscape:connector-curvature="0"
       d="m 69.220853,48.484179 c -3.452897,0 -6.206855,2.388224 -6.206855,4.7625 0,0.249576 0.03196,0.488508 0.09043,0.717269 a 6.2520213,4.0502194 0 0 0 -0.135908,0.840259 6.2520213,4.0502194 0 0 0 0.0863,0.668692 6.252021,3.873043 0 0 0 -0.0863,0.640273 6.252021,3.873043 0 0 0 0.03617,0.415478 6.252021,3.873043 0 0 0 -0.03617,0.413411 6.252021,3.873043 0 0 0 6.251815,3.873148 6.252021,3.873043 0 0 0 6.252332,-3.873148 6.252021,3.873043 0 0 0 -0.03617,-0.414446 6.252021,3.873043 0 0 0 0.03617,-0.414443 6.252021,3.873043 0 0 0 -0.0863,-0.639755 6.2520213,4.0502194 0 0 0 0.0863,-0.66921 6.2520213,4.0502194 0 0 0 -0.186036,-0.979784 c 0.106722,-0.294881 0.168349,-0.601837 0.181385,-0.917258 -0.387419,-2.209527 -3.056568,-4.422986 -6.247165,-4.422986 z m 6.247165,4.422986 c 0.0087,0.04963 0.01687,0.09923 0.02325,0.148829 l -0.0186,-0.272852 c 0,0.04161 -0.0029,0.0827 -0.0047,0.124023 z m 0.02325,0.148829 0.02687,0.394808 c 0,-0.131085 -0.0099,-0.262869 -0.02687,-0.394808 z"
       style="opacity:1;fill:#141414;fill-opacity:0.300595;fill-rule:evenodd;stroke-width:0.151998;filter:url(#filter957);stop-opacity:1"
       id="path928" />
    <path
       inkscape:export-ydpi="217.03084"
       inkscape:export-xdpi="217.03084"
       inkscape:connector-curvature="0"
       d="m 71.066734,52.121261 a 6.2520211,3.873043 25.693775 0 0 -7.313092,0.779555 6.2520211,3.873043 25.693775 0 0 -0.147622,0.39004 6.2520211,3.873043 25.693775 0 0 -0.211752,0.356891 6.2520211,3.873043 25.693775 0 0 3.954597,6.200823 6.2520211,3.873043 25.693775 0 0 7.313091,-0.779558 6.2520211,3.873043 25.693775 0 0 0.147174,-0.389108 6.2520211,3.873043 25.693775 0 0 0.2122,-0.357824 6.2520211,3.873043 25.693775 0 0 -3.954596,-6.200819 z"
       style="opacity:1;fill:url(#radialGradient913);fill-opacity:1;fill-rule:evenodd;stroke-width:0.151998;stop-opacity:1"
       id="ellipse845" />
    <ellipse
       inkscape:export-ydpi="217.03084"
       inkscape:export-xdpi="217.03084"
       transform="rotate(25.693775)"
       ry="3.7270799"
       rx="6.0164018"
       cy="19.629416"
       cx="86.637833"
       id="ellipse853"
       style="opacity:1;fill:#4ba100;fill-opacity:1;fill-rule:evenodd;stroke-width:0.146269;stop-opacity:1" />
    <ellipse
       inkscape:export-ydpi="217.03084"
       inkscape:export-xdpi="217.03084"
       transform="rotate(25.693775)"
       style="opacity:1;fill:#592200;fill-opacity:1;fill-rule:evenodd;stroke-width:0.155436;stop-opacity:1"
       id="ellipse859"
       cx="86.890892"
       cy="18.783529"
       rx="6.2520213"
       ry="4.0502195" />
    <ellipse
       inkscape:export-ydpi="217.03084"
       inkscape:export-xdpi="217.03084"
       transform="rotate(25.693775)"
       ry="3.731302"
       rx="6.0232172"
       cy="18.288185"
       cx="87.529633"
       id="ellipse861"
       style="opacity:1;fill:#be2600;fill-opacity:1;fill-rule:evenodd;stroke-width:0.146435;stop-opacity:1" />
    <path
       inkscape:export-ydpi="217.03084"
       inkscape:export-xdpi="217.03084"
       sodipodi:nodetypes="csssc"
       inkscape:connector-curvature="0"
       d="m 78.235967,56.724353 c -1.029393,2.139517 -4.386241,2.660344 -7.497728,1.163303 -3.111488,-1.497042 -4.959385,-4.00765 -3.929992,-6.147165 1.029393,-2.139516 4.546267,-3.097749 7.657755,-1.600708 3.111487,1.497042 4.550904,5.06625 3.521512,7.205764"
       style="opacity:1;fill:url(#radialGradient895);fill-opacity:1;fill-rule:evenodd;stroke-width:0.160139;stop-opacity:1"
       id="ellipse851" />
    <rect
       inkscape:export-ydpi="221.85001"
       inkscape:export-xdpi="221.85001"
       y="45.903542"
       x="57.596584"
       height="21.982918"
       width="21.982918"
       id="rect970"
       style="opacity:0.446429;fill:#be2600;fill-opacity:0;stroke-width:0.269498" />
  </g>
</svg>
